<svg width="41" height="40" viewBox="0 0 41 40" fill="none" xmlns="http://www.w3.org/2000/svg">
<circle cx="20.9733" cy="19.9967" r="19.9967" fill="white"/>
<path d="M30.7786 18.0388H29.9737V17.9988H20.9751V21.9982H26.6242C25.7993 24.3279 23.5847 25.9976 20.9751 25.9976C17.6606 25.9976 14.976 23.313 14.976 19.9985C14.976 16.684 17.6606 13.9994 20.9751 13.9994C22.5048 13.9994 23.8946 14.5743 24.9545 15.5192L27.784 12.6896C25.9993 11.0248 23.6097 10 20.9751 10C15.4509 10 10.9766 14.4743 10.9766 19.9985C10.9766 25.5227 15.4509 29.997 20.9751 29.997C26.4992 29.997 30.9736 25.5177 30.9736 19.9985C30.9736 19.3286 30.9036 18.6737 30.7786 18.0388Z" fill="#FAB409"/>
<path d="M12.1328 15.3442L15.4173 17.7538C16.3072 15.5542 18.4569 13.9994 20.9765 13.9994C22.5063 13.9994 23.8961 14.5743 24.9559 15.5192L27.7855 12.6896C26.0007 11.0248 23.6111 10 20.9765 10C17.1371 10 13.8076 12.1697 12.1328 15.3442Z" fill="#E73B2F"/>
<path d="M20.9768 30.0051C23.5614 30.0051 25.9061 29.0152 27.6808 27.4104L24.5863 24.7908C23.5814 25.5507 22.3366 26.0057 20.9768 26.0057C18.3772 26.0057 16.1675 24.3459 15.3376 22.0312L12.0781 24.5459C13.7329 27.7854 17.0924 30.0051 20.9768 30.0051Z" fill="#2E9E49"/>
<path d="M30.7801 18.04H29.9752V18H20.9766V21.9994H26.6257C26.2308 23.1192 25.5109 24.0841 24.581 24.784L27.6756 27.4036C27.4556 27.6036 30.9701 24.999 30.9701 19.9997C30.9701 19.3298 30.9001 18.6749 30.7751 18.04H30.7801Z" fill="#3A7AF2"/>
</svg>
