<svg width="40" height="40" viewBox="0 0 40 40" fill="none" xmlns="http://www.w3.org/2000/svg">
<path d="M20 40C31.0457 40 40 31.0457 40 20C40 8.9543 31.0457 0 20 0C8.9543 0 0 8.9543 0 20C0 31.0457 8.9543 40 20 40Z" fill="#F9DB00"/>
<path d="M20.0009 10.2266C14.4791 10.2266 9.99219 14.0526 9.99219 18.7657C10.0878 21.8005 11.827 24.5483 14.54 25.9222L13.6009 30.1222L18.1139 27.157C18.74 27.2613 19.3661 27.3135 20.0009 27.3135C25.5226 27.3135 30.0096 23.4874 30.0096 18.7744C30.0096 14.0613 25.5313 10.2353 20.0009 10.2353" fill="#3E1918"/>
</svg>
